HIERARCHY
ROOT Hips
{
	OFFSET 0.000000 0.000000 0.000000
	CHANNELS 6 Xposition Yposition Zposition Zrotation Yrotation Xrotation 
	JOINT LowerBack
	{
		OFFSET 0.000000 0.000000 0.000000
		CHANNELS 3 Zrotation Yrotation Xrotation
		JOINT Spine
		{
			OFFSET 0.028270 2.035590 -0.193380
			CHANNELS 3 Zrotation Yrotation Xrotation
			JOINT Spine1
			{
				OFFSET 0.056720 2.048850 -0.042750
				CHANNELS 3 Zrotation Yrotation Xrotation
				JOINT Neck
				{
					OFFSET 0.000000 0.000000 0.000000
					CHANNELS 3 Zrotation Yrotation Xrotation
					JOINT Neck1
					{
						OFFSET -0.054170 1.746240 0.172020
						CHANNELS 3 Zrotation Yrotation Xrotation
						JOINT Head
						{
							OFFSET 0.104070 1.761360 -0.123970
							CHANNELS 3 Zrotation Yrotation Xrotation
							End Site
							{
								OFFSET 0.000000 0.000000 0.000000
							}
						}
					}
				}
				JOINT LeftShoulder
				{
					OFFSET 0.000000 0.000000 0.000000
					CHANNELS 3 Zrotation Yrotation Xrotation
					JOINT LeftArm
					{
						OFFSET 3.362410 1.200890 -0.311210
						CHANNELS 3 Zrotation Yrotation Xrotation
						JOINT LeftForeArm
						{
							OFFSET 4.983000 -0.000000 -0.000000
							CHANNELS 3 Zrotation Yrotation Xrotation
							JOINT LeftHand
							{
								OFFSET 3.483560 -0.000000 -0.000000
								CHANNELS 3 Zrotation Yrotation Xrotation
								JOINT LeftFingerBase
								{
									OFFSET 0.000000 0.000000 0.000000
									CHANNELS 3 Zrotation Yrotation Xrotation
									JOINT LeftHandIndex1
									{
										OFFSET 0.715260 -0.000000 -0.000000
										CHANNELS 3 Zrotation Yrotation Xrotation
										End Site
										{
											OFFSET 0.000000 0.000000 0.000000
										}
									}
								}
								JOINT LThumb
								{
									OFFSET 0.000000 0.000000 0.000000
									CHANNELS 3 Zrotation Yrotation Xrotation
									End Site
									{
										OFFSET 0.000000 0.000000 0.000000
									}
								}
							}
						}
					}
				}
				JOINT RightShoulder
				{
					OFFSET 0.000000 0.000000 0.000000
					CHANNELS 3 Zrotation Yrotation Xrotation
					JOINT RightArm
					{
						OFFSET -3.136600 1.374050 -0.404650
						CHANNELS 3 Zrotation Yrotation Xrotation
						JOINT RightForeArm
						{
							OFFSET -5.241900 -0.000000 -0.000000
							CHANNELS 3 Zrotation Yrotation Xrotation
							JOINT RightHand
							{
								OFFSET -3.444170 -0.000000 -0.000000
								CHANNELS 3 Zrotation Yrotation Xrotation
								JOINT RightFingerBase
								{
									OFFSET 0.000000 0.000000 0.000000
									CHANNELS 3 Zrotation Yrotation Xrotation
									JOINT RightHandIndex1
									{
										OFFSET -0.622530 -0.000000 -0.000000
										CHANNELS 3 Zrotation Yrotation Xrotation
										End Site
										{
											OFFSET 0.000000 0.000000 0.000000
										}
									}
								}
								JOINT RThumb
								{
									OFFSET 0.000000 0.000000 0.000000
									CHANNELS 3 Zrotation Yrotation Xrotation
									End Site
									{
										OFFSET 0.000000 0.000000 0.000000
									}
								}
							}
						}
					}
				}
			}
		}
	}
}
}
MOTION
Frames: 18
Frame Time: 0.008333
2.583397 16.753942 -1.886828 119.053890 -86.011270 -128.897350 -3.112969 -3.216319 -0.611897 -0.550649 -3.003996 -2.708415 -2.794049 -3.092482 0.786202 8.886262 -24.475997 -9.357550 -0.016344 0.029731 -0.401235 0.000000 0.000000 0.000000 8.008870 14.833851 -0.103095 -60.955921 30.612279 17.281883 -2.837547 -45.303429 -0.002933 -5.248171 0.019234 -0.002274 -0.073076 -0.041062 -0.000000 0.000000 0.000000 0.000000 0.000000 0.000000 0.000000 6.389668 -20.708559 -0.216575 50.624616 -3.987853 30.263856 1.111889 58.491671 0.005879 1.280373 3.886306 0.043633 0.040393 -0.093264 -0.000000 0.000000 0.000000 0.000000 0.000000 0.000000 0.000000 
2.610563 16.765565 -1.919050 119.127681 -85.905308 -129.132927 -3.208280 -3.204145 -0.549817 -0.572287 -2.984904 -2.703445 -2.798869 -3.072976 0.749463 8.918271 -24.326496 -9.388724 -0.012215 0.030770 -0.411147 0.000000 0.000000 0.000000 8.198758 14.642290 -0.079921 -61.411544 30.786752 17.137034 -2.856016 -45.132906 -0.003070 -5.347553 -0.000241 -0.001484 -0.072056 -0.041838 -0.000000 0.000000 0.000000 0.000000 0.000000 0.000000 0.000000 6.349713 -20.526216 -0.190704 50.861017 -3.522766 30.155158 1.107093 58.410593 0.005779 1.096771 3.840815 0.036748 0.042685 -0.095658 -0.000000 0.000000 0.000000 0.000000 0.000000 0.000000 0.000000 
2.639211 16.776744 -1.950676 118.752958 -85.826234 -128.902320 -3.308026 -3.187355 -0.474884 -0.596528 -2.960835 -2.696244 -2.808671 -3.048114 0.712191 8.943483 -24.181323 -9.421016 -0.009112 0.031750 -0.421314 0.000000 0.000000 0.000000 8.394674 14.425653 -0.057159 -61.846729 30.921969 17.028300 -2.869537 -45.013091 -0.003205 -5.443900 -0.017636 -0.000795 -0.070803 -0.042533 -0.000000 0.000000 0.000000 0.000000 0.000000 0.000000 0.000000 6.304117 -20.344442 -0.162684 51.129732 -3.092149 30.039031 1.104471 58.326221 0.005679 0.928001 3.795875 0.030564 0.044911 -0.098003 -0.000000 0.000000 0.000000 0.000000 0.000000 0.000000 0.000000 
2.669234 16.787364 -1.981784 117.872577 -85.777654 -128.153305 -3.415400 -3.168149 -0.382615 -0.624012 -2.933741 -2.685751 -2.823836 -3.019807 0.674579 8.965550 -24.041331 -9.452788 -0.007602 0.032598 -0.431321 0.000000 0.000000 0.000000 8.598181 14.186547 -0.035963 -62.258018 31.018404 16.956570 -2.877302 -44.950229 -0.003327 -5.532803 -0.034004 -0.000004 -0.069306 -0.043102 -0.000000 0.000000 0.000000 0.000000 0.000000 0.000000 0.000000 6.259815 -20.165741 -0.133347 51.422245 -2.694315 29.923521 1.103714 58.243044 0.005590 0.780356 3.754303 0.025278 0.046961 -0.100278 -0.000000 0.000000 0.000000 0.000000 0.000000 0.000000 0.000000 
2.700437 16.797460 -2.012382 116.474886 -85.761610 -126.872578 -3.530388 -3.147756 -0.275014 -0.654703 -2.904893 -2.672128 -2.844619 -2.989360 0.637295 8.987711 -23.907485 -9.482099 -0.008110 0.033240 -0.440626 0.000000 0.000000 0.000000 8.809212 13.928429 -0.017580 -62.643545 31.078598 16.918990 -2.878766 -44.949525 -0.003429 -5.611164 -0.049005 0.000686 -0.067567 -0.043504 -0.000000 0.000000 0.000000 0.000000 0.000000 0.000000 0.000000 6.222249 -19.992491 -0.103365 51.729900 -2.326329 29.817852 1.104620 58.161942 0.005517 0.656783 3.719921 0.020892 0.048785 -0.102462 -0.000000 0.000000 0.000000 0.000000 0.000000 0.000000 0.000000 
2.732789 16.807035 -2.042553 114.529013 -85.781426 -125.032180 -3.651059 -3.127756 -0.150452 -0.688249 -2.875998 -2.654843 -2.871333 -2.958451 0.601016 9.013529 -23.779577 -9.507224 -0.010956 0.033620 -0.448783 0.000000 0.000000 0.000000 9.029274 13.655956 -0.002885 -63.002949 31.102233 16.911881 -2.873630 -45.011694 -0.003503 -5.676488 -0.063286 0.001374 -0.065590 -0.043686 -0.000000 0.000000 0.000000 0.000000 0.000000 0.000000 0.000000 6.196489 -19.826054 -0.073653 52.047018 -1.985207 29.726991 1.107003 58.081573 0.005469 0.558051 3.696045 0.017505 0.050349 -0.104541 -0.000000 0.000000 0.000000 0.000000 0.000000 0.000000 0.000000 
2.766075 16.816212 -2.072264 112.017019 -85.839140 -122.611655 -3.773196 -3.109073 -0.010991 -0.723893 -2.848307 -2.634071 -2.904335 -2.928330 0.566765 9.046026 -23.657354 -9.526493 -0.016333 0.033689 -0.455326 0.000000 0.000000 0.000000 9.259393 13.373598 0.007378 -63.336746 31.090617 16.930087 -2.861902 -45.136145 -0.003541 -5.728184 -0.076606 0.001966 -0.063385 -0.043607 -0.000000 0.000000 0.000000 0.000000 0.000000 0.000000 0.000000 6.186002 -19.667565 -0.044995 52.369572 -1.668523 29.654025 1.110795 57.998977 0.005448 0.482373 3.685984 0.014916 0.051672 -0.106503 -0.000000 0.000000 0.000000 0.000000 0.000000 0.000000 0.000000 
2.800221 16.825046 -2.101580 108.907697 -85.934755 -119.578998 -3.892145 -3.091937 0.141740 -0.760864 -2.822415 -2.609985 -2.943857 -2.899574 0.535352 9.087064 -23.540236 -9.538403 -0.024260 0.033415 -0.459843 0.000000 0.000000 0.000000 9.500551 13.085646 0.012627 -63.646168 31.044498 16.968660 -2.843766 -45.320178 -0.003542 -5.766854 -0.089430 0.002655 -0.060954 -0.043232 -0.000000 0.000000 0.000000 0.000000 0.000000 0.000000 0.000000 6.192242 -19.517349 -0.018093 52.696075 -1.375017 29.599183 1.115961 57.909680 0.005454 0.426393 3.691160 0.013028 0.052792 -0.108330 -0.000000 0.000000 0.000000 0.000000 0.000000 0.000000 0.000000 
2.835109 16.833690 -2.130537 105.161930 -86.064143 -115.893584 -4.004211 -3.075693 0.305449 -0.798700 -2.798008 -2.582951 -2.990192 -2.871846 0.507465 9.138069 -23.427330 -9.541746 -0.034676 0.032779 -0.462001 0.000000 0.000000 0.000000 9.754254 12.795978 0.012485 -63.932097 30.966150 17.023005 -2.819665 -45.559797 -0.003508 -5.795290 -0.101748 0.003345 -0.058290 -0.042550 -0.000000 0.000000 0.000000 0.000000 0.000000 0.000000 0.000000 6.215779 -19.374862 0.006505 53.027448 -1.104528 29.561071 1.122513 57.808989 0.005493 0.385472 3.712284 0.011738 0.053773 -0.110008 -0.000000 0.000000 0.000000 0.000000 0.000000 0.000000 0.000000 
2.870696 16.842106 -2.159064 100.768450 -86.219828 -111.545508 -4.105087 -3.058390 0.479733 -0.836768 -2.773518 -2.553107 -3.043114 -2.843540 0.483478 9.197916 -23.317695 -9.535652 -0.047209 0.031796 -0.461575 0.000000 0.000000 0.000000 10.019993 12.508920 0.006803 -64.195394 30.856832 17.089896 -2.790137 -45.850242 -0.003436 -5.817183 -0.114353 0.004035 -0.055383 -0.041555 -0.000000 0.000000 0.000000 0.000000 0.000000 0.000000 0.000000 6.253264 -19.238671 0.028526 53.365775 -0.857384 29.536128 1.130421 57.692268 0.005554 0.353882 3.747965 0.010748 0.054687 -0.111526 -0.000000 0.000000 0.000000 0.000000 0.000000 0.000000 0.000000 
2.906540 16.850564 -2.187167 95.741672 -86.386908 -106.542156 -4.195416 -3.036913 0.655873 -0.875365 -2.746056 -2.522250 -3.102123 -2.811861 0.463828 9.264166 -23.210389 -9.518963 -0.061509 0.030466 -0.458172 0.000000 0.000000 0.000000 10.296006 12.227761 -0.004769 -64.434589 30.722448 17.170137 -2.755967 -46.185432 -0.003335 -5.836336 -0.129077 0.004824 -0.052235 -0.040280 -0.000000 0.000000 0.000000 0.000000 0.000000 0.000000 0.000000 6.300074 -19.106742 0.047900 53.713953 -0.637447 29.520725 1.139755 57.556541 0.005636 0.328779 3.794540 0.009957 0.055590 -0.112852 -0.000000 0.000000 0.000000 0.000000 0.000000 0.000000 0.000000 
2.943353 16.858591 -2.214882 90.137305 -86.550902 -100.959759 -4.279755 -3.008930 0.855210 -0.915642 -2.712975 -2.486406 -3.167171 -2.773833 0.447849 9.336394 -23.104373 -9.493397 -0.077062 0.028891 -0.452495 0.000000 0.000000 0.000000 10.583297 11.956377 -0.021072 -64.653391 30.561530 17.254477 -2.717795 -46.563533 -0.003217 -5.859203 -0.143369 0.005611 -0.048802 -0.038773 -0.000000 0.000000 0.000000 0.000000 0.000000 0.000000 0.000000 6.353977 -18.976682 0.065242 54.077387 -0.436559 29.512505 1.150367 57.399079 0.005724 0.301256 3.848972 0.009167 0.056573 -0.114021 -0.000000 0.000000 0.000000 0.000000 0.000000 0.000000 0.000000 
2.980303 16.866568 -2.242117 84.139867 -86.688561 -94.966977 -4.367338 -2.970706 1.054414 -0.958927 -2.670448 -2.450360 -3.236223 -2.726034 0.435497 9.407988 -22.998988 -9.457132 -0.093333 0.027060 -0.443827 0.000000 0.000000 0.000000 10.874664 11.697670 -0.042841 -64.844645 30.385774 17.352352 -2.676553 -46.976728 -0.003085 -5.886933 -0.162284 0.006697 -0.045131 -0.037088 -0.000000 0.000000 0.000000 0.000000 0.000000 0.000000 0.000000 6.405882 -18.845970 0.080397 54.457340 -0.265737 29.508359 1.162145 57.221724 0.005821 0.274490 3.903813 0.008277 0.057614 -0.114980 -0.000000 0.000000 0.000000 0.000000 0.000000 0.000000 0.000000 
3.019370 16.871030 -2.269234 68.679909 -86.979464 -79.580195 -4.273655 -3.040038 1.379874 -0.971246 -2.749589 -2.389505 -3.302055 -2.796761 0.425042 9.458923 -22.903050 -9.415235 -0.106621 0.025545 -0.433924 0.000000 0.000000 0.000000 11.212250 11.358588 -0.065845 -65.055215 30.163136 17.460471 -2.629861 -47.411426 -0.002791 -5.920720 -0.184114 0.007980 -0.040718 -0.033719 -0.000000 0.000000 0.000000 0.000000 0.000000 0.000000 0.000000 6.420717 -18.793014 0.081598 54.891640 -0.125315 29.493616 1.169339 57.027070 0.005890 0.246773 3.953262 0.007380 0.058602 -0.114832 -0.000000 0.000000 0.000000 0.000000 0.000000 0.000000 0.000000 
3.057086 16.878132 -2.295853 63.057630 -86.922782 -73.964026 -4.451881 -2.974841 1.610314 -1.035022 -2.677785 -2.347442 -3.373818 -2.718904 0.416877 9.522149 -22.794104 -9.360484 -0.122679 0.023458 -0.420439 0.000000 0.000000 0.000000 11.503824 11.132656 -0.096074 -65.187880 29.977204 17.572783 -2.585329 -47.888127 -0.002668 -5.966535 -0.210673 0.009562 -0.036633 -0.031979 -0.000000 0.000000 0.000000 0.000000 0.000000 0.000000 0.000000 6.457440 -18.651344 0.094657 55.314361 -0.004608 29.497755 1.182469 56.818946 0.005975 0.218574 3.994012 0.006390 0.059709 -0.115483 -0.000000 0.000000 0.000000 0.000000 0.000000 0.000000 0.000000 
3.094404 16.884906 -2.321843 58.048281 -86.821585 -68.945646 -4.657237 -2.905392 1.837726 -1.102905 -2.601118 -2.305855 -3.444047 -2.636281 0.410994 9.571697 -22.684598 -9.298357 -0.138049 0.021298 -0.404907 0.000000 0.000000 0.000000 11.780593 10.925822 -0.128767 -65.284575 29.793376 17.706245 -2.540392 -48.381847 -0.002541 -6.016303 -0.248112 0.011644 -0.032500 -0.030218 -0.000000 0.000000 0.000000 0.000000 0.000000 0.000000 0.000000 6.476492 -18.509513 0.105042 55.753504 0.087691 29.505741 1.195426 56.608828 0.006047 0.198440 4.018404 0.005700 0.060679 -0.115891 0.000000 0.000000 0.000000 0.000000 0.000000 0.000000 0.000000 
3.132349 16.890726 -2.347899 53.754480 -86.679436 -64.654357 -4.900341 -2.836146 2.091526 -1.177151 -2.523278 -2.259229 -3.514046 -2.552111 0.404861 9.613305 -22.573880 -9.231917 -0.153304 0.019110 -0.388521 0.000000 0.000000 0.000000 12.043805 10.731057 -0.162063 -65.349689 29.625139 17.831690 -2.495572 -48.899945 -0.002430 -6.073983 -0.287722 0.013924 -0.028278 -0.028528 -0.000000 0.000000 0.000000 0.000000 0.000000 0.000000 0.000000 6.487590 -18.367856 0.113512 56.209383 0.167109 29.527002 1.207661 56.402735 0.006101 0.181986 4.028356 0.005106 0.061527 -0.116140 0.000000 0.000000 0.000000 0.000000 0.000000 0.000000 0.000000 
3.169711 16.895856 -2.373672 50.295611 -86.512246 -61.185885 -5.167854 -2.767078 2.341333 -1.254223 -2.444871 -2.213301 -3.581297 -2.467501 0.400180 9.639133 -22.460924 -9.161507 -0.167882 0.016907 -0.371088 0.000000 0.000000 0.000000 12.284769 10.561551 -0.195479 -65.376721 29.470744 17.977131 -2.451678 -49.418674 -0.002317 -6.126291 -0.339578 0.016904 -0.024186 -0.026884 -0.000000 0.000000 0.000000 0.000000 0.000000 0.000000 0.000000 6.481726 -18.225320 0.118520 56.674724 0.223614 29.558440 1.218560 56.215806 0.006142 0.183215 4.018721 0.005113 0.062057 -0.116175 0.000000 0.000000 0.000000 0.000000 0.000000 0.000000 0.000000 
